<svg width="24" height="21" viewBox="0 0 24 21" fill="none" xmlns="http://www.w3.org/2000/svg">
<path d="M0.857143 3.95075H23.1429C23.6163 3.95075 24 3.58446 24 3.13257V1.08712C24 0.635226 23.6163 0.268936 23.1429 0.268936H0.857143C0.383732 0.268936 0 0.635226 0 1.08712V3.13257C0 3.58446 0.383732 3.95075 0.857143 3.95075ZM0.857143 12.1326H23.1429C23.6163 12.1326 24 11.7663 24 11.3144V9.26894C24 8.81704 23.6163 8.45076 23.1429 8.45076H0.857143C0.383732 8.45076 0 8.81704 0 9.26894V11.3144C0 11.7663 0.383732 12.1326 0.857143 12.1326ZM0.857143 20.3144H23.1429C23.6163 20.3144 24 19.9481 24 19.4962V17.4508C24 16.9989 23.6163 16.6326 23.1429 16.6326H0.857143C0.383732 16.6326 0 16.9989 0 17.4508V19.4962C0 19.9481 0.383732 20.3144 0.857143 20.3144Z" fill="white"/>
</svg>
